<?xml version="1.0" encoding="UTF-8" standalone="no"?>
<svg
   xmlns:dc="http://purl.org/dc/elements/1.1/"
   xmlns:cc="http://creativecommons.org/ns#"
   xmlns:rdf="http://www.w3.org/1999/02/22-rdf-syntax-ns#"
   xmlns:svg="http://www.w3.org/2000/svg"
   xmlns="http://www.w3.org/2000/svg"
   xmlns:sodipodi="http://sodipodi.sourceforge.net/DTD/sodipodi-0.dtd"
   xmlns:inkscape="http://www.inkscape.org/namespaces/inkscape"
   viewBox="0 0 800 553"
   enable-background="new 0 0 800 1186"
   id="svg2"
   version="1.1"
   inkscape:version="0.91 r13725"
   sodipodi:docname="git-rebase.svg"
   width="800"
   height="553">
  <metadata
     id="metadata96">
    <rdf:RDF>
      <cc:Work
         rdf:about="">
        <dc:format>image/svg+xml</dc:format>
        <dc:type
           rdf:resource="http://purl.org/dc/dcmitype/StillImage" />
        <dc:title></dc:title>
      </cc:Work>
    </rdf:RDF>
  </metadata>
  <defs
     id="defs94" />
  <sodipodi:namedview
     pagecolor="#ffffff"
     bordercolor="#666666"
     borderopacity="1"
     objecttolerance="10"
     gridtolerance="10"
     guidetolerance="10"
     inkscape:pageopacity="0"
     inkscape:pageshadow="2"
     inkscape:window-width="1920"
     inkscape:window-height="1176"
     id="namedview92"
     showgrid="false"
     inkscape:zoom="0.56282361"
     inkscape:cx="-138.97798"
     inkscape:cy="657.11857"
     inkscape:window-x="0"
     inkscape:window-y="24"
     inkscape:window-maximized="1"
     inkscape:current-layer="svg2" />
  <style
     type="text/css"
     id="style4">.st0{display:none;} .st1{display:inline;} .st2{fill:#FFFFFF;} .st3{fill:none;stroke:#9882CE;stroke-width:4;stroke-miterlimit:10;} .st4{fill:#FFFFFF;stroke:#404040;stroke-width:4;stroke-linecap:round;stroke-linejoin:round;stroke-miterlimit:10;} .st5{fill:#FFFFFF;stroke:#404040;stroke-width:4;stroke-miterlimit:10;} .st6{fill:#B3E3FF;stroke:#404040;stroke-width:4;stroke-miterlimit:10;} .st7{fill:#B18BE8;stroke:#404040;stroke-width:4;stroke-miterlimit:10;} .st8{fill:#FFFFFF;stroke:#404040;stroke-width:6;stroke-miterlimit:10;} .st9{fill:#B3E3FF;stroke:#404040;stroke-width:6;stroke-miterlimit:10;} .st10{fill:#404040;} .st11{fill:none;stroke:#404040;stroke-width:4;stroke-linecap:round;stroke-linejoin:round;stroke-miterlimit:10;} .st12{fill:#B18BE8;stroke:#404040;stroke-width:4;stroke-linecap:round;stroke-linejoin:round;stroke-miterlimit:10;} .st13{fill:#444444;} .st14{fill:none;stroke:#404040;stroke-width:4;stroke-miterlimit:10;} .st15{fill:#4ED1A1;stroke:#404040;stroke-width:4;stroke-miterlimit:10;} .st16{fill:none;stroke:#CCCCCC;stroke-width:7;stroke-linecap:round;stroke-linejoin:round;stroke-miterlimit:10;} .st17{fill:#FFFFFF;stroke:#CCCCCC;stroke-width:7;stroke-linecap:round;stroke-linejoin:round;stroke-miterlimit:10;} .st18{fill:none;stroke:#404040;stroke-width:7;stroke-miterlimit:10;} .st19{fill:#B3E3FF;stroke:#404040;stroke-width:7;stroke-miterlimit:10;} .st20{fill:none;stroke:#CCCCCC;stroke-width:8;stroke-linecap:round;stroke-miterlimit:10;} .st21{fill:none;stroke:#404040;stroke-width:8;stroke-linecap:round;stroke-miterlimit:10;} .st22{fill:#FFFFFF;stroke:#404040;stroke-width:4;stroke-linejoin:round;stroke-miterlimit:10;} .st23{fill:#B3E3FF;stroke:#404040;stroke-width:4;stroke-linejoin:round;stroke-miterlimit:10;} .st24{fill:none;stroke:#CCCCCC;stroke-linecap:round;stroke-linejoin:round;stroke-miterlimit:10;} .st25{fill:#999999;} .st26{fill:#4ED1A1;stroke:#404040;stroke-width:4;stroke-linecap:round;stroke-linejoin:round;stroke-miterlimit:10;} .st27{fill:#4CD3D6;stroke:#404040;stroke-width:4;stroke-linejoin:round;stroke-miterlimit:10;} .st28{fill:none;stroke:#59AFE1;stroke-width:4;stroke-miterlimit:10;} .st29{fill:#59AFE1;stroke:#404040;stroke-width:4;stroke-linejoin:round;stroke-miterlimit:10;} .st30{fill:none;stroke:#404040;stroke-width:8;stroke-linecap:round;stroke-linejoin:round;stroke-miterlimit:10;stroke-dasharray:0,30;} .st31{fill:#FFFFFF;stroke:#59AFE1;stroke-width:4;stroke-miterlimit:10;} .st32{fill:#FC8363;stroke:#404040;stroke-width:4;stroke-linecap:round;stroke-linejoin:round;stroke-miterlimit:10;} .st33{fill:#CCCCCC;stroke:#404040;stroke-width:4;stroke-miterlimit:10;} .st34{fill:#FFFFFF;stroke:#6693ED;stroke-width:4;stroke-miterlimit:10;} .st35{fill:none;stroke:#A97CDD;stroke-width:4;stroke-linecap:round;stroke-linejoin:round;stroke-miterlimit:10;} .st36{fill:none;stroke:#B3E3FF;stroke-width:4;stroke-linecap:round;stroke-linejoin:round;stroke-miterlimit:10;} .st37{fill:none;stroke:#4ED1A1;stroke-width:4;stroke-linecap:round;stroke-miterlimit:10;} .st38{fill:none;stroke:#4ED1A1;stroke-width:4;stroke-linecap:round;stroke-linejoin:round;stroke-miterlimit:10;} .st39{fill:#E24B88;stroke:#404040;stroke-width:4;stroke-linecap:round;stroke-linejoin:round;stroke-miterlimit:10;} .st40{fill:none;stroke:#DEEFF8;stroke-width:4;stroke-miterlimit:10;} .st41{fill:none;stroke:#CCCCCC;stroke-width:4;stroke-linecap:round;stroke-linejoin:round;} .st42{fill:none;stroke:#CCCCCC;stroke-width:4;stroke-linecap:round;stroke-linejoin:round;stroke-dasharray:0,14.3051;} .st43{fill:none;stroke:#CCCCCC;stroke-width:4;stroke-linecap:round;stroke-linejoin:round;stroke-dasharray:0,14.1689;} .st44{fill:none;stroke:#CCCCCC;stroke-width:4;stroke-linecap:round;stroke-linejoin:round;stroke-dasharray:0,13.9788;} .st45{fill:none;stroke:#CCCCCC;stroke-width:4;stroke-linecap:round;stroke-linejoin:round;stroke-dasharray:0,14.7877;} .st46{fill:none;stroke:#CCCCCC;stroke-width:4;stroke-linecap:round;stroke-linejoin:round;stroke-dasharray:0,14.9632;} .st47{fill:#B3E3FF;stroke:#404040;stroke-width:4;stroke-linecap:round;stroke-linejoin:round;stroke-miterlimit:10;} .st48{fill:none;stroke:#CCCCCC;stroke-width:4;stroke-linecap:round;stroke-linejoin:round;stroke-dasharray:0,12.543;} .st49{fill:none;stroke:#CCCCCC;stroke-width:4;stroke-linecap:round;stroke-linejoin:round;stroke-dasharray:0,13.6844;} .st50{fill:none;stroke:#CCCCCC;stroke-width:4;stroke-linecap:round;stroke-linejoin:round;stroke-dasharray:0,13.7717;} .st51{fill:none;stroke:#CCCCCC;stroke-width:4;stroke-linecap:round;stroke-linejoin:round;stroke-dasharray:0,13.6492;} .st52{fill:none;stroke:#CCCCCC;stroke-width:4;stroke-linecap:round;stroke-linejoin:round;stroke-dasharray:0,13.907;} .st53{fill:#4CD3D6;stroke:#404040;stroke-width:4;stroke-linecap:round;stroke-linejoin:round;stroke-miterlimit:10;} .st54{fill:none;stroke:#CCCCCC;stroke-width:4;stroke-linecap:round;stroke-linejoin:round;stroke-dasharray:0,14.9858;} .st55{fill:none;stroke:#CCCCCC;stroke-width:4;stroke-linecap:round;stroke-linejoin:round;stroke-dasharray:0,14.0118;} .st56{fill:none;stroke:#CCCCCC;stroke-width:4;stroke-linecap:round;stroke-linejoin:round;stroke-dasharray:0,14.1243;} .st57{fill:none;} .st58{fill:#FFFFFF;stroke:#404040;stroke-width:7;stroke-linecap:round;stroke-linejoin:round;stroke-miterlimit:10;} .st59{fill:#59AFE1;stroke:#404040;stroke-width:7;stroke-linejoin:round;stroke-miterlimit:10;} .st60{fill:#E24B88;stroke:#404040;stroke-width:7;stroke-linecap:round;stroke-linejoin:round;stroke-miterlimit:10;} .st61{fill:none;stroke:#404040;stroke-width:7;stroke-linecap:round;stroke-linejoin:round;stroke-miterlimit:10;} .st62{fill:none;stroke:#CCCCCC;stroke-width:4;stroke-linecap:round;stroke-linejoin:round;stroke-miterlimit:10;} .st63{fill:#FFFFFF;stroke:#CCCCCC;stroke-width:4;stroke-linecap:round;stroke-linejoin:round;stroke-miterlimit:10;} .st64{fill:#F5F5F5;} .st65{fill:#3873AE;} .st66{fill:#75706C;} .st67{fill:none;stroke:#B3E3FF;stroke-width:4;stroke-miterlimit:10;} .st68{fill:#6F6F6F;} .st69{fill:none;stroke:#6F6F6F;stroke-width:2;stroke-miterlimit:10;} .st70{fill:none;stroke:#6F6F6F;stroke-width:3;stroke-miterlimit:10;}</style>
  <g
     id="advanced_x5F_tips_x5F_rewritinghistory_x5F_6"
     transform="translate(0,-0.47500644)">
    <path
       class="st24"
       d="m 129.3,632.6 541.4,0"
       id="path7"
       inkscape:connector-curvature="0"
       style="fill:none;stroke:#cccccc;stroke-linecap:round;stroke-linejoin:round;stroke-miterlimit:10" />
    <path
       class="st25"
       d="m 303.2,20.6 -4.7,0 -1.1,3 -1.6,0 4.2,-10.6 1.7,0 4.2,10.6 -1.6,0 -1.1,-3 z m -4.2,-1.4 3.7,0 -1.8,-4.8 -1.9,4.8 z m 11,-1.6 0,5.9 -1.5,0 0,-5.9 -1.3,0 0,-1.3 1.3,0 0,-1.2 c 0,-1.6 1.1,-2.5 2.4,-2.5 0.5,0 0.8,0.1 0.8,0.2 l 0,1.2 c -0.1,0 -0.3,-0.1 -0.6,-0.1 -0.5,0 -1.1,0.2 -1.1,1.2 l 0,1.1 1.7,0 0,1.3 -1.7,0 z m 5.9,-1.3 1.6,0 0,1.3 -1.6,0 0,3.8 c 0,0.7 0.3,1 1,1 0.2,0 0.4,0 0.6,-0.1 l 0,1.2 c -0.1,0 -0.5,0.1 -1,0.1 -1.2,0 -2,-0.8 -2,-2.1 l 0,-4 -1.4,0 0,-1.3 0.4,0 c 0.8,0 1.1,-0.5 1.1,-1.1 l 0,-1.1 1.3,0 0,2.3 z m 10.3,5.2 c -0.4,1.3 -1.6,2.3 -3.2,2.3 -1.9,0 -3.6,-1.4 -3.6,-3.9 0,-2.3 1.6,-3.8 3.5,-3.8 2.2,0 3.5,1.5 3.5,3.8 l 0,0.4 -5.4,0 c 0,1.3 1,2.2 2.2,2.2 1.2,0 1.8,-0.6 2,-1.5 l 1,0.5 z m -1.4,-2.3 c 0,-1 -0.7,-1.8 -2,-1.8 -1.2,0 -1.9,0.9 -2,1.8 l 4,0 z m 8,-1.4 -0.6,0 c -1.2,0 -2,0.6 -2,2.2 l 0,3.6 -1.4,0 0,-7.2 1.4,0 0,1.3 c 0.5,-1.1 1.4,-1.4 2.2,-1.4 l 0.5,0 0,1.5 z m 10,1.4 -1.6,0 0,4.3 -1.5,0 0,-10.6 4,0 c 2,0 3.3,1.4 3.3,3.2 0,1.5 -1,2.7 -2.6,3 l 2.5,4.5 -1.7,0 -2.4,-4.4 z m 0.7,-1.3 c 1.2,0 2,-0.7 2,-1.8 0,-1.1 -0.8,-1.8 -2,-1.8 l -2.2,0 0,3.6 2.2,0 z m 12.1,3.6 c -0.4,1.3 -1.6,2.3 -3.2,2.3 -1.9,0 -3.6,-1.4 -3.6,-3.9 0,-2.3 1.6,-3.8 3.5,-3.8 2.2,0 3.5,1.5 3.5,3.8 l 0,0.4 -5.4,0 c 0,1.3 1,2.2 2.2,2.2 1.2,0 1.8,-0.6 2,-1.5 l 1,0.5 z m -1.4,-2.3 c 0,-1 -0.7,-1.8 -2,-1.8 -1.2,0 -1.9,0.9 -2,1.8 l 4,0 z m 4,4.3 0,-10.8 1.4,0 0,4.7 c 0.3,-0.6 1.2,-1.2 2.4,-1.2 2.2,0 3.3,1.7 3.3,3.8 0,2.1 -1.2,3.8 -3.4,3.8 -1.1,0 -1.9,-0.5 -2.3,-1.2 l 0,1 -1.4,0 z m 3.5,-6.1 c -1.2,0 -2.1,1 -2.1,2.5 0,1.6 0.9,2.6 2.1,2.6 1.3,0 2.1,-1 2.1,-2.6 0.1,-1.6 -0.8,-2.5 -2.1,-2.5 z m 7.9,2 2,-0.3 c 0.4,-0.1 0.6,-0.3 0.6,-0.5 0,-0.7 -0.5,-1.3 -1.6,-1.3 -1,0 -1.5,0.6 -1.6,1.5 l -1.4,-0.3 c 0.2,-1.4 1.4,-2.3 3,-2.3 2.2,0 3,1.2 3,2.6 l 0,3.6 c 0,0.6 0.1,1 0.1,1.2 l -1.4,0 c 0,-0.2 -0.1,-0.5 -0.1,-1 -0.3,0.5 -1,1.2 -2.3,1.2 -1.5,0 -2.4,-1 -2.4,-2.2 -0.1,-1.3 0.9,-2 2.1,-2.2 z m 2.5,1.1 0,-0.3 -2.2,0.3 c -0.6,0.1 -1,0.4 -1,1.1 0,0.5 0.5,1 1.2,1 1.1,0 2,-0.6 2,-2.1 z m 5,0.7 c 0.1,0.8 0.7,1.3 1.7,1.3 0.8,0 1.2,-0.4 1.2,-1 0,-0.4 -0.3,-0.8 -0.9,-0.9 l -1.2,-0.3 c -1.1,-0.2 -1.8,-1 -1.8,-2 0,-1.2 1.2,-2.3 2.6,-2.3 2,0 2.6,1.3 2.7,1.9 l -1.2,0.5 c -0.1,-0.4 -0.4,-1.2 -1.5,-1.2 -0.7,0 -1.2,0.5 -1.2,1 0,0.4 0.3,0.8 0.8,0.9 l 1.2,0.3 c 1.3,0.3 2,1.1 2,2.1 0,1 -0.9,2.2 -2.6,2.2 -2,0 -2.8,-1.3 -2.9,-2.1 l 1.1,-0.4 z m 7.6,-8.6 c 0.6,0 1,0.4 1,1 0,0.6 -0.4,1 -1,1 -0.6,0 -1,-0.5 -1,-1 0,-0.6 0.4,-1 1,-1 z m -0.7,10.9 0,-7.2 1.4,0 0,7.2 -1.4,0 z m 5.9,0 -1.4,0 0,-7.2 1.4,0 0,1 c 0.5,-0.9 1.4,-1.2 2.2,-1.2 1.7,0 2.6,1.2 2.6,2.9 l 0,4.6 -1.4,0 0,-4.3 c 0,-1 -0.4,-1.8 -1.7,-1.8 -1.1,0 -1.7,0.9 -1.7,2 l 0,4 z m 8.6,0.1 c 0.1,1 0.9,1.8 2,1.8 1.5,0 2.2,-0.8 2.2,-2.3 l 0,-1 c -0.3,0.7 -1.1,1.2 -2.2,1.2 -1.9,0 -3.3,-1.5 -3.3,-3.5 0,-1.9 1.3,-3.5 3.3,-3.5 1.1,0 1.9,0.4 2.2,1.1 l 0,-1 1.4,0 0,6.6 c 0,1.8 -0.9,3.6 -3.6,3.6 -1.8,0 -3.2,-1.1 -3.3,-2.7 l 1.3,-0.3 z m 4.3,-3.9 c 0,-1.4 -0.8,-2.3 -2.1,-2.3 -1.2,0 -2.1,0.9 -2.1,2.3 0,1.4 0.8,2.3 2.1,2.3 1.2,0 2.1,-0.9 2.1,-2.3 z m 13.6,-7 c 2.7,0 5.3,2 5.3,5.5 0,3.6 -2.7,5.5 -5.3,5.5 -2.6,0 -5.3,-2 -5.3,-5.5 0,-3.5 2.7,-5.5 5.3,-5.5 z m 0,9.7 c 2,0 3.8,-1.4 3.8,-4.2 0,-2.8 -1.9,-4.2 -3.8,-4.2 -2,0 -3.8,1.4 -3.8,4.2 0,2.8 1.9,4.2 3.8,4.2 z m 9.4,1.1 -1.4,0 0,-7.2 1.4,0 0,1 c 0.5,-0.9 1.4,-1.2 2.2,-1.2 1.7,0 2.6,1.2 2.6,2.9 l 0,4.6 -1.4,0 0,-4.3 c 0,-1 -0.4,-1.8 -1.7,-1.8 -1.1,0 -1.7,0.9 -1.7,2 l 0,4 z m 9.7,-7.2 1.6,0 0,1.3 -1.6,0 0,3.8 c 0,0.7 0.3,1 1,1 0.2,0 0.4,0 0.6,-0.1 l 0,1.2 c -0.1,0 -0.5,0.1 -1,0.1 -1.2,0 -2,-0.8 -2,-2.1 l 0,-4 -1.4,0 0,-1.3 0.4,0 c 0.8,0 1.1,-0.5 1.1,-1.1 l 0,-1.1 1.3,0 0,2.3 z m 10.9,3.6 c 0,2.2 -1.5,3.8 -3.7,3.8 -2.2,0 -3.7,-1.6 -3.7,-3.8 0,-2.2 1.5,-3.8 3.7,-3.8 2.2,0 3.7,1.6 3.7,3.8 z m -1.5,0 c 0,-1.7 -1,-2.6 -2.2,-2.6 -1.2,0 -2.2,0.9 -2.2,2.6 0,1.7 1.1,2.6 2.2,2.6 1.2,0 2.2,-0.9 2.2,-2.6 z m 18.7,3.6 0,-8.3 -3.6,8.3 -1.3,0 -3.6,-8.3 0,8.3 -1.5,0 0,-10.6 2,0 3.7,8.7 3.8,-8.7 2,0 0,10.6 -1.5,0 z m 6.4,-4.1 1.9,-0.3 c 0.4,-0.1 0.6,-0.3 0.6,-0.5 0,-0.7 -0.5,-1.3 -1.6,-1.3 -1,0 -1.5,0.6 -1.6,1.5 L 468,18.5 c 0.1,-1.4 1.4,-2.3 3,-2.3 2.2,0 3,1.2 3,2.6 l 0,3.6 c 0,0.6 0.1,1 0.1,1.2 l -1.4,0 c 0,-0.2 -0.1,-0.5 -0.1,-1 -0.3,0.5 -1,1.2 -2.3,1.2 -1.5,0 -2.4,-1 -2.4,-2.2 -0.1,-1.3 0.9,-2 2.1,-2.2 z m 2.5,1.1 0,-0.3 -2.2,0.3 c -0.6,0.1 -1,0.4 -1,1.1 0,0.5 0.4,1 1.2,1 1.1,0 2,-0.6 2,-2.1 z m 5,0.7 c 0.1,0.8 0.7,1.3 1.7,1.3 0.8,0 1.2,-0.4 1.2,-1 0,-0.4 -0.3,-0.8 -0.9,-0.9 l -1.2,-0.3 c -1.1,-0.2 -1.8,-1 -1.8,-2 0,-1.2 1.2,-2.3 2.6,-2.3 2,0 2.6,1.3 2.7,1.9 l -1.2,0.5 c -0.1,-0.4 -0.4,-1.2 -1.5,-1.2 -0.7,0 -1.2,0.5 -1.2,1 0,0.4 0.3,0.8 0.8,0.9 l 1.2,0.3 c 1.3,0.3 2,1.1 2,2.1 0,1 -0.9,2.2 -2.6,2.2 -2,0 -2.8,-1.3 -2.9,-2.1 l 1.1,-0.4 z m 8.8,-4.9 1.6,0 0,1.3 -1.6,0 0,3.8 c 0,0.7 0.3,1 1,1 0.2,0 0.4,0 0.6,-0.1 l 0,1.2 c -0.1,0 -0.5,0.1 -1,0.1 -1.2,0 -2,-0.8 -2,-2.1 l 0,-4 -1.4,0 0,-1.3 0.4,0 c 0.8,0 1.1,-0.5 1.1,-1.1 l 0,-1.1 1.3,0 0,2.3 z m 10.4,5.2 c -0.4,1.3 -1.6,2.3 -3.2,2.3 -1.9,0 -3.6,-1.4 -3.6,-3.9 0,-2.3 1.6,-3.8 3.5,-3.8 2.2,0 3.5,1.5 3.5,3.8 l 0,0.4 -5.4,0 c 0,1.3 1,2.2 2.2,2.2 1.2,0 1.8,-0.6 2,-1.5 l 1,0.5 z m -1.4,-2.3 c 0,-1 -0.7,-1.8 -2,-1.8 -1.2,0 -1.9,0.9 -2,1.8 l 4,0 z m 8,-1.4 -0.6,0 c -1.2,0 -2,0.6 -2,2.2 l 0,3.6 -1.4,0 0,-7.2 1.4,0 0,1.3 c 0.5,-1.1 1.4,-1.4 2.2,-1.4 l 0.5,0 0,1.5 z"
       id="path9"
       inkscape:connector-curvature="0"
       style="fill:#999999" />
    <path
       class="st62"
       d="m 253.6,347.6 c 0,22.6 -18.4,41 -41,41 m 41,-41 c 0,-22.6 18.4,-41 41,-41 l 160.4,0"
       id="path11"
       inkscape:connector-curvature="0"
       style="fill:none;stroke:#cccccc;stroke-width:4;stroke-linecap:round;stroke-linejoin:round;stroke-miterlimit:10" />
    <circle
       class="st63"
       cx="338"
       cy="306.60001"
       r="21"
       id="circle13"
       style="fill:#ffffff;stroke:#cccccc;stroke-width:4;stroke-linecap:round;stroke-linejoin:round;stroke-miterlimit:10" />
    <circle
       class="st63"
       cx="434"
       cy="306.60001"
       r="21"
       id="circle15"
       style="fill:#ffffff;stroke:#cccccc;stroke-width:4;stroke-linecap:round;stroke-linejoin:round;stroke-miterlimit:10" />
    <path
       class="st6"
       d="m 42.6,388.6 170,0"
       id="path17"
       inkscape:connector-curvature="0"
       style="fill:#b3e3ff;stroke:#404040;stroke-width:4;stroke-miterlimit:10" />
    <circle
       class="st5"
       cx="63.599998"
       cy="388.60001"
       r="21"
       id="circle19"
       style="fill:#ffffff;stroke:#404040;stroke-width:4;stroke-miterlimit:10" />
    <circle
       class="st5"
       cx="159.60001"
       cy="388.60001"
       r="21"
       id="circle21"
       style="fill:#ffffff;stroke:#404040;stroke-width:4;stroke-miterlimit:10" />
    <path
       class="st14"
       d="m 527,347.6 c 0,22.6 -18.4,41 -41,41 m 41,-41 c 0,-22.6 18.4,-41 41,-41 l 160.4,0"
       id="path23"
       inkscape:connector-curvature="0"
       style="fill:none;stroke:#404040;stroke-width:4;stroke-miterlimit:10" />
    <circle
       class="st5"
       cx="611.40002"
       cy="306.60001"
       r="21"
       id="circle25"
       style="fill:#ffffff;stroke:#404040;stroke-width:4;stroke-miterlimit:10" />
    <circle
       class="st29"
       cx="707.40002"
       cy="306.60001"
       r="21"
       id="circle27"
       style="fill:#59afe1;stroke:#404040;stroke-width:4;stroke-linejoin:round;stroke-miterlimit:10" />
    <path
       class="st6"
       d="m 195.9,388.6 290.1,0"
       id="path29"
       inkscape:connector-curvature="0"
       style="fill:#b3e3ff;stroke:#404040;stroke-width:4;stroke-miterlimit:10" />
    <circle
       class="st6"
       cx="337"
       cy="388.60001"
       r="21"
       id="circle31"
       style="fill:#b3e3ff;stroke:#404040;stroke-width:4;stroke-miterlimit:10" />
    <circle
       class="st6"
       cx="433"
       cy="388.60001"
       r="21"
       id="circle33"
       style="fill:#b3e3ff;stroke:#404040;stroke-width:4;stroke-miterlimit:10" />
    <circle
       class="st5"
       cx="337"
       cy="388.60001"
       r="21"
       id="circle35"
       style="fill:#ffffff;stroke:#404040;stroke-width:4;stroke-miterlimit:10" />
    <circle
       class="st5"
       cx="434"
       cy="388.60001"
       r="21"
       id="circle37"
       style="fill:#ffffff;stroke:#404040;stroke-width:4;stroke-miterlimit:10" />
    <path
       class="st63"
       d="m 384.3,165.7 100,0 0,50 -100,0 z"
       id="path39"
       inkscape:connector-curvature="0"
       style="fill:#ffffff;stroke:#cccccc;stroke-width:4;stroke-linecap:round;stroke-linejoin:round;stroke-miterlimit:10" />
    <path
       class="st10"
       d="m 407.4,196.7 0,-10.7 6.5,0 0,1.4 -5,0 0,3.4 4.5,0 0,1.4 -4.5,0 0,4.5 -1.5,0 z m 14.7,-2.1 c -0.4,1.3 -1.6,2.3 -3.2,2.3 -1.9,0 -3.6,-1.4 -3.6,-3.9 0,-2.3 1.6,-3.8 3.4,-3.8 2.2,0 3.5,1.5 3.5,3.8 l 0,0.4 -5.4,0 c 0,1.3 1,2.2 2.2,2.2 1.2,0 1.8,-0.6 2,-1.5 l 1.1,0.5 z m -1.5,-2.3 c 0,-1 -0.7,-1.8 -2,-1.8 -1.2,0 -1.9,0.9 -2,1.8 l 4,0 z m 5.8,0.2 2,-0.3 c 0.4,-0.1 0.6,-0.3 0.6,-0.5 0,-0.7 -0.5,-1.3 -1.6,-1.3 -1,0 -1.5,0.6 -1.6,1.5 l -1.4,-0.3 c 0.2,-1.4 1.4,-2.3 3,-2.3 2.2,0 3,1.2 3,2.6 l 0,3.6 c 0,0.6 0.1,1 0.1,1.2 l -1.5,0 c 0,-0.2 -0.1,-0.5 -0.1,-1 -0.3,0.5 -1,1.2 -2.3,1.2 -1.5,0 -2.4,-1 -2.4,-2.2 0,-1.3 1,-2 2.2,-2.2 z m 2.5,1.1 0,-0.3 -2.2,0.3 c -0.6,0.1 -1,0.4 -1,1.1 0,0.5 0.5,1 1.2,1 1.1,0 2,-0.6 2,-2.1 z m 6.3,-4.2 1.6,0 0,1.3 -1.6,0 0,3.8 c 0,0.7 0.3,1 1,1 0.2,0 0.4,0 0.6,-0.1 l 0,1.2 c -0.1,0 -0.5,0.1 -1,0.1 -1.2,0 -2,-0.8 -2,-2.1 l 0,-4 -1.4,0 0,-1.3 0.4,0 c 0.8,0 1.1,-0.5 1.1,-1.1 l 0,-1.2 1.3,0 0,2.4 z m 6.8,7.5 c -1.7,0 -2.7,-1.3 -2.7,-2.9 l 0,-4.5 1.4,0 0,4.3 c 0,1 0.5,1.9 1.6,1.9 1.1,0 1.7,-0.8 1.7,-1.8 l 0,-4.4 1.4,0 0,5.9 c 0,0.6 0,1.1 0.1,1.3 l -1.3,0 c 0,-0.2 -0.1,-0.6 -0.1,-0.9 -0.4,0.7 -1.3,1.1 -2.1,1.1 z m 10.6,-6 -0.6,0 c -1.2,0 -2,0.6 -2,2.2 l 0,3.6 -1.4,0 0,-7.2 1.4,0 0,1.3 c 0.5,-1.1 1.4,-1.4 2.2,-1.4 l 0.5,0 0,1.5 z m 8.4,3.7 c -0.4,1.3 -1.6,2.3 -3.2,2.3 -1.9,0 -3.6,-1.4 -3.6,-3.9 0,-2.3 1.6,-3.8 3.5,-3.8 2.2,0 3.5,1.5 3.5,3.8 l 0,0.4 -5.4,0 c 0,1.3 1,2.2 2.2,2.2 1.2,0 1.8,-0.6 2,-1.5 l 1,0.5 z m -1.4,-2.3 c 0,-1 -0.7,-1.8 -2,-1.8 -1.2,0 -1.9,0.9 -2,1.8 l 4,0 z"
       id="path41"
       inkscape:connector-curvature="0"
       style="fill:#404040" />
    <path
       class="st11"
       d="m 434.3,261.5 0,-23.5 m 10.8,14.8 -10.8,10.8 -10.9,-10.8"
       id="path43"
       inkscape:connector-curvature="0"
       style="fill:none;stroke:#404040;stroke-width:4;stroke-linecap:round;stroke-linejoin:round;stroke-miterlimit:10" />
    <path
       class="st26"
       d="m 657.4,165.7 100,0 0,50 -100,0 z"
       id="path45"
       inkscape:connector-curvature="0"
       style="fill:#4ed1a1;stroke:#404040;stroke-width:4;stroke-linecap:round;stroke-linejoin:round;stroke-miterlimit:10" />
    <path
       class="st10"
       d="m 680.6,196.7 0,-10.7 6.5,0 0,1.4 -5,0 0,3.4 4.5,0 0,1.4 -4.6,0 0,4.5 -1.4,0 z m 14.6,-2.1 c -0.4,1.3 -1.6,2.3 -3.2,2.3 -1.9,0 -3.6,-1.4 -3.6,-3.9 0,-2.3 1.6,-3.8 3.5,-3.8 2.2,0 3.5,1.5 3.5,3.8 l 0,0.4 -5.4,0 c 0,1.3 1,2.2 2.2,2.2 1.2,0 1.8,-0.6 2,-1.5 l 1,0.5 z m -1.4,-2.3 c 0,-1 -0.7,-1.8 -2,-1.8 -1.2,0 -1.9,0.9 -2,1.8 l 4,0 z m 5.7,0.2 2,-0.3 c 0.4,-0.1 0.6,-0.3 0.6,-0.5 0,-0.7 -0.5,-1.3 -1.6,-1.3 -1,0 -1.5,0.6 -1.6,1.5 l -1.4,-0.3 c 0.2,-1.4 1.4,-2.3 3,-2.3 2.2,0 3,1.2 3,2.6 l 0,3.6 c 0,0.6 0.1,1 0.1,1.2 l -1.4,0 c 0,-0.2 -0.1,-0.5 -0.1,-1 -0.3,0.5 -1,1.2 -2.3,1.2 -1.5,0 -2.4,-1 -2.4,-2.2 -0.1,-1.3 0.9,-2 2.1,-2.2 z m 2.5,1.1 0,-0.3 -2.2,0.3 c -0.6,0.1 -1.1,0.4 -1.1,1.1 0,0.5 0.5,1 1.2,1 1.2,0 2.1,-0.6 2.1,-2.1 z m 6.3,-4.2 1.6,0 0,1.3 -1.6,0 0,3.8 c 0,0.7 0.3,1 1,1 0.2,0 0.4,0 0.6,-0.1 l 0,1.2 c -0.1,0 -0.5,0.1 -1,0.1 -1.2,0 -2,-0.8 -2,-2.1 l 0,-4 -1.4,0 0,-1.3 0.4,0 c 0.8,0 1.1,-0.5 1.1,-1.1 l 0,-1.2 1.3,0 0,2.4 z m 6.8,7.5 c -1.7,0 -2.7,-1.3 -2.7,-2.9 l 0,-4.5 1.4,0 0,4.3 c 0,1 0.4,1.9 1.6,1.9 1.1,0 1.7,-0.8 1.7,-1.8 l 0,-4.4 1.4,0 0,5.9 c 0,0.6 0,1.1 0.1,1.3 l -1.3,0 c 0,-0.2 -0.1,-0.6 -0.1,-0.9 -0.4,0.7 -1.3,1.1 -2.1,1.1 z m 10.6,-6 -0.6,0 c -1.2,0 -2,0.6 -2,2.2 l 0,3.6 -1.4,0 0,-7.2 1.4,0 0,1.3 c 0.5,-1.1 1.4,-1.4 2.2,-1.4 l 0.5,0 0,1.5 z m 8.5,3.7 c -0.4,1.3 -1.6,2.3 -3.2,2.3 -1.9,0 -3.6,-1.4 -3.6,-3.9 0,-2.3 1.6,-3.8 3.4,-3.8 2.2,0 3.5,1.5 3.5,3.8 l 0,0.4 -5.4,0 c 0,1.3 1,2.2 2.2,2.2 1.2,0 1.8,-0.6 2,-1.5 l 1.1,0.5 z m -1.5,-2.3 c 0,-1 -0.7,-1.8 -2,-1.8 -1.2,0 -1.9,0.9 -2,1.8 l 4,0 z"
       id="path47"
       inkscape:connector-curvature="0"
       style="fill:#404040" />
    <path
       class="st11"
       d="m 707.4,261.5 0,-23.5 m 10.8,14.8 -10.8,10.8 -10.9,-10.8 m -42.4,-118.9 15.4,0 0,-15.3 M 477,130.7 c 24.9,-23.1 58.1,-37.1 94.7,-37.1 36.5,0 69.7,14 94.5,37"
       id="path49"
       inkscape:connector-curvature="0"
       style="fill:none;stroke:#404040;stroke-width:4;stroke-linecap:round;stroke-linejoin:round;stroke-miterlimit:10" />
    <path
       class="st23"
       d="m 383,480.6 100,0 0,50 -100,0 z"
       id="path51"
       inkscape:connector-curvature="0"
       style="fill:#b3e3ff;stroke:#404040;stroke-width:4;stroke-linejoin:round;stroke-miterlimit:10" />
    <path
       class="st10"
       d="m 418.3,511.6 0,-8.3 -3.6,8.3 -1.3,0 -3.6,-8.3 0,8.3 -1.5,0 0,-10.6 2,0 3.8,8.7 3.8,-8.7 2,0 0,10.6 -1.6,0 z m 6.5,-4.1 1.9,-0.3 c 0.4,-0.1 0.6,-0.3 0.6,-0.5 0,-0.7 -0.5,-1.3 -1.6,-1.3 -1,0 -1.5,0.6 -1.6,1.5 l -1.4,-0.3 c 0.2,-1.4 1.4,-2.3 3,-2.3 2.2,0 3,1.2 3,2.6 l 0,3.6 c 0,0.6 0.1,1 0.1,1.2 l -1.4,0 c 0,-0.2 -0.1,-0.5 -0.1,-1 -0.3,0.5 -1,1.2 -2.3,1.2 -1.5,0 -2.4,-1 -2.4,-2.2 0,-1.3 0.9,-2 2.2,-2.2 z m 2.5,1 0,-0.3 -2.2,0.3 c -0.6,0.1 -1,0.4 -1,1.1 0,0.5 0.4,1 1.2,1 1,0 2,-0.5 2,-2.1 z m 4.9,0.8 c 0.1,0.8 0.7,1.3 1.7,1.3 0.8,0 1.2,-0.5 1.2,-1 0,-0.5 -0.3,-0.8 -0.9,-0.9 l -1.2,-0.3 c -1.1,-0.2 -1.8,-1 -1.8,-2 0,-1.2 1.2,-2.3 2.6,-2.3 2,0 2.6,1.3 2.7,1.9 l -1.2,0.5 c -0.1,-0.4 -0.4,-1.2 -1.5,-1.2 -0.7,0 -1.2,0.5 -1.2,1 0,0.4 0.3,0.8 0.8,0.9 l 1.2,0.3 c 1.3,0.3 2,1.1 2,2.1 0,1 -0.9,2.2 -2.6,2.2 -2,0 -2.8,-1.3 -2.9,-2.1 l 1.1,-0.4 z m 8.8,-4.9 1.6,0 0,1.3 -1.6,0 0,3.8 c 0,0.7 0.3,1 1,1 0.2,0 0.4,0 0.6,-0.1 l 0,1.2 c -0.1,0 -0.5,0.1 -1,0.1 -1.2,0 -2,-0.8 -2,-2.1 l 0,-4 -1.4,0 0,-1.3 0.4,0 c 0.8,0 1.1,-0.5 1.1,-1.1 l 0,-1.2 1.3,0 0,2.4 z m 10.4,5.1 c -0.4,1.3 -1.6,2.3 -3.2,2.3 -1.9,0 -3.6,-1.4 -3.6,-3.9 0,-2.3 1.6,-3.8 3.5,-3.8 2.2,0 3.5,1.5 3.5,3.8 l 0,0.4 -5.6,0 c 0,1.3 1,2.2 2.2,2.2 1.2,0 1.8,-0.6 2,-1.5 l 1.2,0.5 z m -1.4,-2.3 c 0,-1 -0.7,-1.8 -2,-1.8 -1.2,0 -1.9,0.9 -2,1.8 l 4,0 z m 8,-1.4 -0.6,0 c -1.2,0 -2,0.6 -2,2.2 l 0,3.6 -1.4,0 0,-7.2 1.4,0 0,1.3 c 0.5,-1.1 1.4,-1.4 2.2,-1.4 l 0.5,0 0,1.5 z"
       id="path53"
       inkscape:connector-curvature="0"
       style="fill:#404040" />
    <path
       class="st11"
       d="m 433,434.1 0,23.5 m -10.8,-14.8 10.8,-10.9 10.9,10.9"
       id="path55"
       inkscape:connector-curvature="0"
       style="fill:none;stroke:#404040;stroke-width:4;stroke-linecap:round;stroke-linejoin:round;stroke-miterlimit:10" />
    <path
       class="st4"
       d="m 604.9,306.7 13,0 m -11.1,-4.6 9.2,9.2 m 0,-9.2 -9.2,9.2 m 4.6,-11.1 0,13 m 89.1,-6.5 13,0 m -11.1,-4.6 9.2,9.2 m 0,-9.2 -9.2,9.2 m 4.6,-11.1 0,13"
       id="path57"
       inkscape:connector-curvature="0"
       style="fill:#ffffff;stroke:#404040;stroke-width:4;stroke-linecap:round;stroke-linejoin:round;stroke-miterlimit:10" />
  </g>
</svg>
